<?xml version="1.0" encoding="UTF-8"?>
<svg fill="#f1961c" version="1.1" viewBox="0 0 26.006 19.346" xmlns="http://www.w3.org/2000/svg" xmlns:cc="http://creativecommons.org/ns#" xmlns:dc="http://purl.org/dc/elements/1.1/" xmlns:rdf="http://www.w3.org/1999/02/22-rdf-syntax-ns#">
<metadata>
<rdf:RDF>
<cc:Work rdf:about="">
<dc:format>image/svg+xml</dc:format>
<dc:type rdf:resource="http://purl.org/dc/dcmitype/StillImage"/>
<dc:title/>
</cc:Work>
</rdf:RDF>
</metadata>
<g transform="translate(.0013382 -3.0915)" fill="#f1961c">
<path d="m24.938 3.0938c-0.03125 0.007813-0.0625 0.019531-0.09375 0.03125-4.9727 0.78125-7.4883 4.6484-8.1562 5.75-0.75-0.33984-1.9102-0.78125-3.6875-0.78125-1.8164 0-2.9844 0.47266-3.7188 0.8125-0.67578-1.0391-3.0195-4.3438-8.1875-4.8125-0.32422-0.03125-0.64453 0.097656-0.85547 0.34766-0.21484 0.25-0.28906 0.58594-0.20703 0.90234 0.37891 1.4219 1.6289 5.4297 5.3125 7.375-0.14062 0.41016-0.39062 0.87109-0.4375 1.1875-0.082031 0.5625-0.10547 0.87109-0.1875 1.0312-0.011719 0.019531-0.023437 0.042969-0.03125 0.0625-0.87891 2.0898-0.81641 3.8516-0.1875 5.125 0.62891 1.2734 1.7227 1.9922 2.6875 2.3125l0.625-1.875c0.35547-0.53516 0.33984-1.4297-0.09375-2.2188-0.39062-0.71094-1.0352-1.1445-1.625-1.2188 0.078125-0.38672 0.20703-0.80078 0.40625-1.2812 0.011719-0.027344 0.019531-0.035156 0.03125-0.0625 0.28516-0.60547 0.27734-1.1523 0.34375-1.5938 0.066406-0.46094 0.15625-0.87109 0.46875-1.375 0.14844-0.25391 0.17969-0.55859 0.082031-0.83594-0.097656-0.27344-0.30859-0.49609-0.58203-0.60156-1.6289-0.625-2.625-1.7266-3.3125-2.9062l0.96875-1.0625c2.4141 1.3086 3.625 3.1875 3.625 3.1875 0.13672 0.23828 0.36328 0.40625 0.62891 0.47266 0.26562 0.06641 0.54688 0.01953 0.77734-0.12891 0 0 1.3477-0.84375 3.4688-0.84375s3.4688 0.84375 3.4688 0.84375c0.23047 0.14844 0.51172 0.19531 0.77734 0.12891 0.26562-0.066406 0.49219-0.23438 0.62891-0.47266 0 0 1.5859-2.4727 4.1875-4.0938l0.875 0.9375c-0.76953 1.3984-2 2.7031-3.9062 3.4375-0.28516 0.10938-0.50781 0.34375-0.59766 0.63672-0.09375 0.29297-0.04297 0.60938 0.12891 0.86328 0.32812 0.47266 0.49219 1.0078 0.59375 1.5938 0.10156 0.58594 0.09766 1.1914 0.4375 1.875l0.03125 0.03125c0.21875 0.40234 0.32422 0.81641 0.375 1.2188-0.73828-0.10547-1.5625 0.52344-1.9062 1.5312-0.24609 0.72656-0.17188 1.4492 0.125 1.9375-0.01953 0.01172-0.04297 0.01953-0.0625 0.03125l0.90625 1.8125c2.5-1.25 3.8867-4.5664 2.3125-7.4688h0.03125c-0.058594-0.11719-0.16016-0.625-0.28125-1.3125-0.070312-0.40234-0.34766-0.92578-0.53125-1.4062 3.6289-1.8438 5.1992-5.3438 5.4062-8.0312 0.027344-0.29297-0.074219-0.58203-0.27734-0.79297-0.20703-0.21094-0.49219-0.32031-0.78516-0.30078zm-14.938 11.906c-0.55078 0-1 0.44922-1 1s0.44922 1 1 1 1-0.44922 1-1-0.44922-1-1-1zm6 0c-0.55078 0-1 0.44922-1 1s0.44922 1 1 1 1-0.44922 1-1-0.44922-1-1-1zm-3 2c-0.55078 0-1 0.22266-1 0.5s0.44922 0.5 1 0.5 1-0.22266 1-0.5-0.44922-0.5-1-0.5z" fill="#f1961c"/>
</g>
</svg>
